<?xml version="1.0" encoding="UTF-8"?><!DOCTYPE svg PUBLIC "-//W3C//DTD SVG 1.1//EN" "http://www.w3.org/Graphics/SVG/1.1/DTD/svg11.dtd"><svg xmlns="http://www.w3.org/2000/svg"><symbol id="add" viewBox="0 0 32 32">
  <g fill="none" stroke="currentColor" stroke-linecap="square" stroke-miterlimit="10">
    <circle class="st0" cx="16" cy="16" r="11"/>
    <path class="st0" d="M11 16h10m-5 5V11"/>
  </g>
</symbol><symbol id="alert" viewBox="0 0 32 32">
  <path d="M25.83 22.27l-8.75-14.6a.78.78 0 0 0-1.3 0L7 22.27a.71.71 0 0 0 .65 1.05h17.53a.71.71 0 0 0 .65-1.05zm-9.9-10h1v5h-1zm.51 8.6a1 1 0 1 1 1-1 1 1 0 0 1-1 .98z" fill="currentColor"/>
</symbol><symbol id="arrow-down" viewBox="0 0 32 32">
  <path d="M22.5 13L16 19l-6.5-6" fill="none" stroke="currentColor"/>
</symbol><symbol id="arrow-left" viewBox="0 0 32 32">
  <path d="M18.89 9.06l-6 6.5 6 6.5" fill="none" stroke="currentColor"/>
</symbol><symbol id="arrow-right" viewBox="0 0 32 32">
  <path d="M13.44 8.75l6 6.5-6 6.5" fill="none" stroke="currentColor"/>
</symbol><symbol id="arrow-up" viewBox="0 0 32 32">
  <path d="M9.5 19l6.5-6 6.5 6" fill="none" stroke="currentColor"/>
</symbol><symbol id="bell" viewBox="0 0 32 32">
    <path stroke="currentColor" fill="none" d="M21.47 21.73a1.81 1.81 0 0 0 1.82-1.45 1.74 1.74 0 0 0-.29-1.35 6.3 6.3 0 0 1-1.4-3.73v-2.61a5.92 5.92 0 0 0-5.75-5.86 5.93 5.93 0 0 0-5.75 5.86v2.61a6.23 6.23 0 0 1-1.4 3.73 1.74 1.74 0 0 0-.32 1.35 1.81 1.81 0 0 0 1.82 1.45zM19.81 21.73a4 4 0 1 1-8 0"/>
</symbol><symbol id="blocks" viewBox="0 0 32 32">
    <path fill="none" stroke="currentColor" d="M7 6.66h6.75v6.75H7zM18.25 6.66H25v6.75h-6.75zM7 17.91h6.75v6.75H7zM18.25 17.91H25v6.75h-6.75z"/>
</symbol><symbol id="callendar" viewBox="0 0 32 32">
    <path stroke="currentColor" fill="none" d="M8 9.18h16v15.57H8zM24 14.05H8M12 10.64V6.75M20 10.64V6.75"/>
</symbol><symbol id="clock" viewBox="0 0 32 32">
  <g fill="none" stroke="currentColor" stroke-miterlimit="10">
    <circle cx="16" cy="15.51" r="9"/>
    <path stroke-linecap="round" d="M16 10.02v5.94l3.5 3.49"/>
  </g>
</symbol><symbol id="crop" viewBox="0 0 32 32">
  <g class="nc-icon-wrapper" stroke-linecap="square" stroke-width="2" fill="none" stroke="currentColor" stroke-miterlimit="10">
    <path d="M9 2v7M23 27v3M2 9h21v14"/>
    <path d="M9 13v10h21"/>
  </g>
</symbol><symbol id="cross-circle" viewBox="0 0 32 32">
  <path d="M16 6.45a9 9 0 1 0 9 9 9 9 0 0 0-9-9zm3.63 12.33l-.74.68L16 16.33l-2.89 3.13-.74-.68 3-3.19-3-3.19.74-.68L16 14.85l2.89-3.13.74.68-2.95 3.19z" fill="currentColor"/>
</symbol><symbol id="cross" viewBox="0 0 32 32">
    <path d="M23.5,22.1l-1.3,1.2l-5.3-5.7l-5.3,5.7l-1.3-1.2l5.3-5.8l-5.3-5.8l1.3-1.2L17,15l5.3-5.7l1.3,1.2l-5.3,5.8L23.5,22.1z" fill="currentColor"/>
</symbol><symbol id="dashboard" viewBox="0 0 32 32">
    <path fill="currentColor" d="M10 8a2 2 0 1 0 2 2 2 2 0 0 0-2-2zM16 8a2 2 0 1 0 2 2 2 2 0 0 0-2-2zM22 8a2 2 0 1 0 2 2 2 2 0 0 0-2-2zM10 14a2 2 0 1 0 2 2 2 2 0 0 0-2-2zM16 14a2 2 0 1 0 2 2 2 2 0 0 0-2-2zM22 14a2 2 0 1 0 2 2 2 2 0 0 0-2-2zM10 20a2 2 0 1 0 2 2 2 2 0 0 0-2-2zM16 20a2 2 0 1 0 2 2 2 2 0 0 0-2-2zM22 20a2 2 0 1 0 2 2 2 2 0 0 0-2-2z"/>
</symbol><symbol id="delete" viewBox="0 0 32 32">
    <path fill="none" stroke="currentColor" d="M9 11h14l-.9 13a2.2 2.2 0 0 1-2.19 2H12a2.19 2.19 0 0 1-2.16-2zM13 13.56v8M16 13.56v8M19 13.56v8M6.92 8h18v3h-18zM13 8V5h5.84v3"/>
</symbol><symbol id="duplicate" viewBox="0 0 32 32">
  <g fill="none" stroke="currentColor" stroke-miterlimit="10">
    <path d="M6.95 7.25h12v12h-12z"/>
    <path d="M12.95 13.25h12v12h-12z"/>
  </g>
</symbol><symbol id="edit" viewBox="0 0 32 32">
  <g fill="none" stroke="currentColor" stroke-miterlimit="10">
    <path d="M14.73 21.72l-5.58 2.07 1.06-5.72 8.57-10.09 4.52 3.65-8.57 10.09z"/>
    <path d="M18.76 8l1.87-2.21 4.53 3.66-1.88 2.2M10.21 18.07l4.52 3.65"/>
  </g>
</symbol><symbol id="email" viewBox="0 0 32 32">
  <g fill="none" stroke="currentColor" stroke-miterlimit="10">
    <path d="M7.17 8.94h18v14h-18z"/>
    <path d="M7.17 8.94l7.72 6a2.09 2.09 0 0 0 2.57 0l7.71-6"/>
  </g>
</symbol><symbol id="escape" viewBox="0 0 44 44">
    <g fill="currentColor" stroke="none">
        <path d="M18 36h8v8h-8z"/>
        <path d="M18 36h17v8H18zm-9-9h16v8H9z"/>
        <path d="M18 27h8v8h-8zm0-9h8v8h-8z"/>
        <path d="M18 18h17v8H18zM9 9h16v8H9z"/>
        <path d="M18 9h8v8h-8z"/>
        <path d="M18 0h8v44h-8z"/>
        <path d="M18 0h17v8H18z"/>
    </g>
</symbol><symbol id="file-input" viewBox="0 0 32 32">
  <g fill="none" stroke="currentColor" stroke-miterlimit="10">
    <path d="M13.71 9.75l5 9.71L21.2 15l5 8.71h-20z"/>
    <circle cx="21.2" cy="8.75" r="2"/>
  </g>
</symbol><symbol id="file" viewBox="0 0 32 32">
  <g fill="none" stroke="currentColor" stroke-miterlimit="10">
    <path d="M16.41 5.39l-.01 6 6.6.01"/>
    <path d="M23 11.4l-.02 12.98L10 24.36l.04-18.98 6.37.01L23 11.4z"/>
  </g>
</symbol><symbol id="files" viewBox="0 0 32 32">
  <g fill="none" stroke="currentColor" stroke-miterlimit="10">
    <path d="M17.97 5.01l-.01 5.66 5.49.01M18.61 22v5H7V10h4.84"/>
    <path d="M23.45 10.68l-.02 11.33-11.61-.02L11.85 5l6.12.01 5.48 5.67z"/>
  </g>
</symbol><symbol id="flip-alt" viewBox="0 0 32 32">
  <g fill="none" stroke="currentColor" stroke-miterlimit="10">
    <path stroke-linecap="round" stroke-linejoin="round" d="M9.286 21.829L3.5 16.001l5.786-5.831"/>
    <path d="M3.5 16.001l25-.002"/>
    <path stroke-linecap="round" stroke-linejoin="round" d="M22.715 10.171l5.785 5.828-5.785 5.83"/>
  </g>
</symbol><symbol id="flip" viewBox="0 0 32 32">
  <g fill="none" stroke="currentColor" stroke-miterlimit="10">
    <path stroke-linecap="round" stroke-linejoin="round" d="M21.829 22.714L16.001 28.5l-5.831-5.786"/>
    <path d="M16.001 28.5l-.002-25"/>
    <path stroke-linecap="round" stroke-linejoin="round" d="M10.171 9.285L15.999 3.5l5.83 5.785"/>
  </g>
</symbol><symbol id="folder" viewBox="0 0 20 15">
  <path fill="currentColor" d="M10 3L8 0H1.35C.6 0 0 .6 0 1.35v12.3C0 14.4.6 15 1.35 15h17.3c.75 0 1.35-.6 1.35-1.35v-9.3C20 3.6 19.4 3 18.65 3H10z"/>
</symbol><symbol id="globe" viewBox="0 0 32 32">
    <circle fill="none" stroke="currentColor" cx="16" cy="16" r="9"/>
    <ellipse fill="none" stroke="currentColor" cx="16" cy="16" rx="3.6" ry="9"/>
    <path fill="none" stroke="currentColor" d="M7 16h18"/>
</symbol><symbol id="graph-large" viewBox="0 0 68 68">
    <circle cx="34" cy="33.39" r="30" stroke-linecap="square" fill="none" stroke="currentColor" stroke-miterlimit="10" stroke-width="2"/>
    <path fill="none" stroke="currentColor" stroke-miterlimit="10" stroke-width="2px" d="M18.12 34.78h6.22v8h-6.22zM41.9 28.92h6.22v14H41.9zM30.01 23.07h6.22v20h-6.22z"/>
</symbol><symbol id="hamburger" viewBox="0 0 24 24">
    <path fill="currentColor" d="M1 10.5h22v3H1zm0-8h22v3H1zm0 16h22v3H1z"/>
</symbol><symbol id="hide" viewBox="0 0 32 32">
  <g fill="none" stroke="currentColor" stroke-miterlimit="10">
    <path d="M16.44 19a3 3 0 0 1-3-3M26.44 16a12.12 12.12 0 0 1-5 5.67 9.93 9.93 0 0 1-9.92 0 12.07 12.07 0 0 1-5-5.67 12.07 12.07 0 0 1 5-5.67 9.93 9.93 0 0 1 9.92 0 12.12 12.12 0 0 1 5 5.67zM18.56 18.12L24.44 24M14.32 13.88l4.24 4.24M8.44 8l5.88 5.88M14.32 13.88a3 3 0 1 1 4.24 4.24"/>
  </g>
</symbol><symbol id="link" viewBox="0 0 32 32">
  <g fill="none" stroke="currentColor" stroke-linecap="round" stroke-miterlimit="10">
    <path d="M16.24 14.61a4.26 4.26 0 0 1 0 6l-2.4 2.43a4.26 4.26 0 0 1-6-6L10 15"/>
    <path d="M13.84 17a4.26 4.26 0 0 1 0-6l2.4-2.44a4.3 4.3 0 0 1 6.07 0 4.26 4.26 0 0 1 0 6l-2.14 2.1"/>
  </g>
</symbol><symbol id="list" viewBox="0 0 32 32">
    <path fill="none" stroke="currentColor" stroke-miterlimit="10" d="M8.17 6.66h4v4h-4zM8.17 13.66h4v4h-4zM8.17 20.66h4v4h-4zM15.17 8.66h8M15.17 15.66h8M15.17 22.86h8"/>
</symbol><symbol id="lock" viewBox="0 0 24 32">
    <rect x=".5" y="11.8" width="22.38" height="19.58" rx="3.72" ry="3.72" fill="none" stroke="currentColor" stroke-miterlimit="10"/>
    <path d="M6 11.8V6.21a5.71 5.71 0 1 1 11.41 0v5.59M11.69 20.86v4.25" fill="none" stroke="currentColor" stroke-miterlimit="10" stroke-linecap="round"/>
    <circle cx="11.69" cy="19.6" r="2.8" fill="currentColor"/>
</symbol><symbol id="logout" viewBox="0 0 32 32">
    <path fill="none" stroke="currentColor" d="M12.54 21.5h8M12.54 10.5h8M23.54 20.13v6.37h-14v-21h14V12M12.54 16h10"/>
    <path fill="none" stroke="currentColor" d="M19.97 13.41L22.54 16l-2.57 2.59"/>
</symbol><symbol id="map-pin" viewBox="0 0 32 32">
    <path stroke="currentColor" fill="none" d="M16 5.85a7 7 0 0 0-7 7 7.62 7.62 0 0 0 .82 3.27c1.84 4.05 6.18 8.73 6.18 8.73s4.33-4.68 6.18-8.76a8.5 8.5 0 0 0 .82-3.26 6.92 6.92 0 0 0-7-7"/>
    <path stroke="currentColor" fill="none" d="M16 15.26a2.5 2.5 0 1 1 2.5-2.5 2.5 2.5 0 0 1-2.5 2.5"/>
</symbol><symbol id="media-large" viewBox="0 0 68 68">
    <circle cx="34" cy="33.39" r="30" stroke-linecap="square" fill="none" stroke="currentColor" stroke-miterlimit="10" stroke-width="2"/>
    <g fill="none" stroke="currentColor" stroke-miterlimit="10" stroke-width="2px">
        <circle cx="33.97" cy="33.51" r="4.8"/>
        <path d="M48.37 44.24V24.38h-8.05l-2.29-4.14H29.9l-2.28 4.14h-8.05v19.86h28.8z"/>
    <g/>
  </g>
</symbol><symbol id="media" viewBox="0 0 32 32">
    <circle stroke="currentColor" fill="none" cx="16" cy="16.8" r="3"/>
    <path stroke="currentColor" fill="none" d="M25 23.5V11.09h-5.03L18.54 8.5h-5.08l-1.43 2.59H7V23.5h18z"/>
</symbol><symbol id="menu" viewBox="0 0 32 32">
    <path fill="none" stroke="currentColor" d="M6.28 9.53h19M6.28 16.28h19M6.28 23.03h19"/>
    <rect x="16.28" y="13.78" width="5" height="5" rx="2.5" ry="2.5" fill="currentColor"/>
</symbol><symbol id="move" viewBox="0 0 32 32">
    <g fill="none" stroke="currentColor">
        <path d="M8 13.24V8h5.24"/>
        <path d="M18.76 8H24v5.24"/>
        <path d="M24 18.76V24h-5.24"/>
        <path d="M13.24 24H8v-5.24"/>
        <g stroke-linecap="square" stroke-miterlimit="10">
            <path d="M8.46 8.46L16 16"/>
            <path d="M23.54 8.46L16 16"/>
            <path d="M23.54 23.54L16 16"/>
            <path d="M8.46 23.54L16 16"/>
        </g>
    </g>
</symbol><symbol id="phone" viewBox="0 0 48 48">
  <path fill="none" stroke="currentColor" stroke-linecap="square" stroke-miterlimit="10" stroke-width="2" d="M34 30l-6 6-16-16 6-6L8 4l-6 6c0 19.882 16.118 36 36 36l6-6-10-10z"/>
</symbol><symbol id="play-large" viewBox="0 0 68 68">
  <g fill="none" stroke="currentColor" stroke-linecap="square" stroke-miterlimit="10" stroke-width="2px">
    <circle cx="34" cy="33.39" r="30"/>
    <path d="M29 44.56V23.57l14.71 10.49L29 44.56z"/>
  </g>
</symbol><symbol id="plus-large" viewBox="0 0 68 68">
  <g fill="none" stroke="currentColor" stroke-linecap="square" stroke-miterlimit="10" stroke-width="2px">
    <circle cx="34" cy="34" r="30"/>
    <path d="M23.5 34h21M34 44.5v-21"/>
  </g>
</symbol><symbol id="posts" viewBox="0 0 32 32">
    <path fill="none" stroke="currentColor" d="M11.09 21.3a1.11 1.11 0 0 1-1-1.48L11.73 15a9.8 9.8 0 0 0 .54-3.22 9.66 9.66 0 0 0-.7-3.64L11 6.63a.57.57 0 0 1 .52-.78h9.06a.57.57 0 0 1 .52.78l-.62 1.55a9.66 9.66 0 0 0-.7 3.64 9.8 9.8 0 0 0 .49 3.18l1.67 4.78a1.11 1.11 0 0 1-1 1.48zM16 21.3v6.55"/>
</symbol><symbol id="redirects" viewBox="0 0 32 32">
  <path d="M17.2 16.71v3.54l8-6.26-8-6.26v3.54c-9.53 0-10 11.46-10 11.46s5.32-6.02 10-6.02z" fill="none" stroke="currentColor" stroke-miterlimit="10" fill-rule="evenodd"/>
</symbol><symbol id="reorder" viewBox="0 0 32 32">
    <g fill="none" stroke="currentColor">
        <path d="M15.22 19.29l-3.25 3.24-3.26-3.24"/>
        <path d="M16.19 11.78l3.26-3.23 3.26 3.23"/>
        <g stroke-linecap="square" stroke-miterlimit="10">
            <path d="M11.97 21.67V8.55"/>
            <path d="M19.45 9.42v13.13"/>
        </g>
    </g>
</symbol><symbol id="rotate-alt" viewBox="0 0 32 32">
  <g fill="none" stroke="currentColor" stroke-linecap="round">
    <path stroke-miterlimit="10" d="M7.007 17.249a8.964 8.964 0 0 0 2.622 5.855 9 9 0 0 0 12.728 0 9 9 0 0 0 0-12.728 9.001 9.001 0 0 0-12.728 0"/>
    <path stroke-linejoin="round" d="M10.448 5.848l-.819 4.528 4.522.853"/>
  </g>
</symbol><symbol id="rotate" viewBox="0 0 32 32">
  <g fill="none" stroke="currentColor" stroke-linecap="round">
    <path stroke-miterlimit="10" d="M24.993 17.249a8.964 8.964 0 0 1-2.622 5.855 9 9 0 0 1-12.728 0 9 9 0 0 1 0-12.728 9.001 9.001 0 0 1 12.728 0"/>
    <path stroke-linejoin="round" d="M21.553 5.848l.819 4.528-4.522.853"/>
  </g>
</symbol><symbol id="search" viewBox="0 0 32 32">
  <g fill="none" stroke="currentColor" stroke-miterlimit="10">
    <path d="M17.29 17.35l4.46 4.47"/>
    <circle cx="13.75" cy="13.82" r="5"/>
  </g>
</symbol><symbol id="see" viewBox="0 0 32 32">
  <g fill="none" stroke="currentColor" stroke-miterlimit="10">
    <circle cx="16" cy="16" r="3"/>
    <path d="M26 16a12.07 12.07 0 0 1-5 5.67 9.93 9.93 0 0 1-9.92 0A12.07 12.07 0 0 1 6 16a12.07 12.07 0 0 1 5-5.67 9.93 9.93 0 0 1 9.92 0A12.07 12.07 0 0 1 26 16z"/>
  </g>
</symbol><symbol id="select" viewBox="0 0 24 24">
  <path fill="currentColor" d="M12 18a.997.997 0 0 1-.707-.293L.586 7 2 5.586l10 10 10-10L23.414 7 12.707 17.707A.997.997 0 0 1 12 18z"/>
</symbol><symbol id="sitemap" viewBox="0 0 32 32">
    <path fill="none" stroke="currentColor" d="M13.5 5.5h5v5h-5zM13.5 19.5h5v5h-5zM22.5 19.5h5v5h-5zM4.5 19.5h5v5h-5zM16 10.5v9M7 19.49v-4.76h18v4.76"/>
</symbol><symbol id="success" viewBox="0 0 32 32">
  <path d="M16.46 7a9 9 0 1 0 9 9 9 9 0 0 0-9-9zm-1.12 12.73l-3.21-2.81.66-.75 2.39 2.09 4.88-6.56.81.59z" fill="currentColor"/>
</symbol><symbol id="tick" viewBox="0 0 32 32">
    <path d="M14,22.7l-5.6-4.9l1.1-1.3l4.2,3.7l8.5-11.5l1.4,1L14,22.7z" fill="currentColor"/>
</symbol><symbol id="upload-large" viewBox="0 0 68 68">
  <g fill="none" stroke="currentColor" stroke-linecap="square" stroke-miterlimit="10" stroke-width="2px">
    <circle cx="34" cy="34" r="30"/>
    <path d="M34 44.5V23.04M29 26.12l5-5 5 5"/>
  </g>
</symbol><symbol id="upload" viewBox="0 0 48 48">
        <path fill="currentColor" d="M23.44 15.84l-4.57 4.56L20 21.53l3.2-3.2v14.06h1.6V18.34l3.2 3.2 1.13-1.13-4.56-4.56a.8.8 0 0 0-1.13-.01z"/>
        <circle stroke-width="2" stroke="currentColor" fill="none" cx="24" cy="24" r="22"/>
</symbol><symbol id="user-permisions" viewBox="0 0 32 32">
    <rect x="19.79" y="20.13" width="6.11" height="6" rx="1.01" ry="1.01" fill="none" stroke="currentColor" stroke-miterlimit="10"/>
    <path fill="none" stroke="currentColor" stroke-miterlimit="10" stroke-linecap="round" d="M18 16.9a4.48 4.48 0 0 1 .7-3.28 6.29 6.29 0 0 0 .39-2.12c0-3-2-5.37-4.59-5.37s-4.6 2.4-4.6 5.37a5.27 5.27 0 0 0 .39 2.12c1.91 3.54.11 4.34-1.4 5.66a9.16 9.16 0 0 0-3 6.85h10.67M24.88 17.13a2 2 0 0 0-4.07 0v3"/>
</symbol><symbol id="users-large" viewBox="0 0 68 68">
  <g fill="none" stroke="currentColor" stroke-linecap="square" stroke-miterlimit="10" stroke-width="2px">
    <circle cx="34" cy="33.39" r="30"/>
    <path d="M44.58 44.82a11.4 11.4 0 0 0-3.77-8.57c-1.85-1.64-4-2.64-1.71-7.07a8.37 8.37 0 0 0 .48-2.65c0-3.71-2.47-6.71-5.61-6.71s-5.62 3-5.62 6.71a6.79 6.79 0 0 0 .48 2.65c2.33 4.43.14 5.43-1.71 7.07a11.59 11.59 0 0 0-3.7 8.57z"/>
  </g>
</symbol><symbol id="users" viewBox="0 0 32 32">
  <path d="M23.38 24.75a7.62 7.62 0 0 0-2.66-5.83c-1.32-1.12-2.82-1.8-1.22-4.81a5.18 5.18 0 0 0 .34-1.79c0-2.53-1.75-4.57-4-4.57s-4 2-4 4.57a4.39 4.39 0 0 0 .34 1.79c1.65 3 .1 3.69-1.21 4.81a7.73 7.73 0 0 0-2.63 5.83z" fill="none" stroke="currentColor" stroke-miterlimit="10"/>
</symbol><symbol id="zoom-in" viewBox="0 0 32 32">
  <g fill="none" stroke="currentColor" stroke-width="2" stroke-linecap="square" stroke-miterlimit="10">
    <path d="M13.37 9.963v6.815m3.408-3.408H9.963M27 27l-7.005-7.005"/>
    <circle cx="13.37" cy="13.37" r="9.37"/>
  </g>
</symbol><symbol id="zoom-out" viewBox="0 0 32 32">
  <g fill="none" stroke="currentColor" stroke-width="2" stroke-linecap="square" stroke-miterlimit="10">
    <path d="M16.778 13.37H9.963M27 27l-7.005-7.005"/>
    <circle cx="13.37" cy="13.37" r="9.37"/>
  </g>
</symbol></svg>